<svg width="11" height="21" fill="none" xmlns="http://www.w3.org/2000/svg"><path opacity=".7" d="M3.763 1.076C4.592.301 5.765.036 6.876.006c1.174-.01 2.347-.005 3.52-.005.005 1.222.005 2.44 0 3.662H8.122c-.48-.03-.973.33-1.06.8-.01.817-.006 1.634-.006 2.45 1.112.006 2.224 0 3.335.006a44.784 44.784 0 01-.406 3.524c-.983.01-1.966 0-2.95.005-.01 3.484.006 6.962-.004 10.447-1.462.005-2.918-.005-4.38.005-.025-3.484 0-6.968-.015-10.452-.71-.005-1.426.005-2.136-.005.005-1.171 0-2.343 0-3.51.71-.01 1.426 0 2.136-.005.02-1.136-.021-2.277.02-3.412.078-.908.423-1.816 1.107-2.44z" fill="#fff"/></svg>