<svg width="26" height="26" fill="none" xmlns="http://www.w3.org/2000/svg"><g opacity=".7" fill="#fff"><path d="M12.973 6.71c-3.48 0-6.312 2.802-6.312 6.246 0 3.444 2.831 6.245 6.312 6.245 3.48 0 6.311-2.801 6.311-6.245s-2.831-6.245-6.311-6.245zm0 10.192c-2.213 0-4.013-1.77-4.013-3.946 0-2.175 1.8-3.946 4.013-3.946 2.212 0 4.013 1.77 4.013 3.946s-1.8 3.946-4.013 3.946z"/><path d="M18.084.862H7.823a6.968 6.968 0 00-6.96 6.96v10.356a6.968 6.968 0 006.96 6.96h10.26a6.968 6.968 0 006.96-6.96V7.823a6.967 6.967 0 00-6.96-6.96zm4.656 17.316a4.661 4.661 0 01-4.656 4.657H7.823a4.663 4.663 0 01-4.658-4.657V7.823a4.663 4.663 0 014.658-4.657h10.26a4.662 4.662 0 014.657 4.657v10.355z"/><path d="M19.397 7.94a1.485 1.485 0 100-2.97 1.485 1.485 0 000 2.97z"/></g></svg>