<svg width="151" height="37" fill="none" xmlns="http://www.w3.org/2000/svg"><path d="M37.25 1v35h-11.6V10.15h-8l-.1 4.05c-.133 5-.533 9.1-1.2 12.3-.667 3.2-1.833 5.7-3.5 7.5-1.667 1.767-4.05 2.65-7.15 2.65-1.567 0-3.233-.217-5-.65l.6-9.45c.433.1.867.15 1.3.15 1.233 0 2.167-.5 2.8-1.5.667-1 1.117-2.333 1.35-4 .233-1.667.4-3.85.5-6.55L7.7 1h29.55zm23.982 35.8c-3.767 0-7.15-.783-10.15-2.35-3-1.567-5.35-3.733-7.05-6.5-1.7-2.8-2.55-5.95-2.55-9.45 0-3.5.85-6.633 2.55-9.4 1.7-2.8 4.05-4.983 7.05-6.55C54.082.983 57.465.2 61.232.2c3.767 0 7.15.783 10.15 2.35 3 1.567 5.35 3.75 7.05 6.55 1.7 2.767 2.55 5.9 2.55 9.4s-.85 6.65-2.55 9.45c-1.7 2.767-4.05 4.933-7.05 6.5-3 1.567-6.383 2.35-10.15 2.35zm0-9.55c1.467 0 2.783-.35 3.95-1.05 1.2-.733 2.15-1.75 2.85-3.05.7-1.333 1.05-2.883 1.05-4.65 0-1.767-.35-3.3-1.05-4.6-.7-1.333-1.65-2.35-2.85-3.05-1.167-.733-2.483-1.1-3.95-1.1s-2.8.367-4 1.1c-1.167.7-2.1 1.717-2.8 3.05-.7 1.3-1.05 2.833-1.05 4.6 0 1.767.35 3.317 1.05 4.65.7 1.3 1.633 2.317 2.8 3.05 1.2.7 2.533 1.05 4 1.05zm50.647-17.1h-15.05V36h-11.6V1h26.65v9.15zm19.226 26.65c-3.767 0-7.15-.783-10.15-2.35-3-1.567-5.35-3.733-7.05-6.5-1.7-2.8-2.55-5.95-2.55-9.45 0-3.5.85-6.633 2.55-9.4 1.7-2.8 4.05-4.983 7.05-6.55 3-1.567 6.383-2.35 10.15-2.35 3.767 0 7.15.783 10.15 2.35 3 1.567 5.35 3.75 7.05 6.55 1.7 2.767 2.55 5.9 2.55 9.4s-.85 6.65-2.55 9.45c-1.7 2.767-4.05 4.933-7.05 6.5-3 1.567-6.383 2.35-10.15 2.35zm0-9.55c1.467 0 2.783-.35 3.95-1.05 1.2-.733 2.15-1.75 2.85-3.05.7-1.333 1.05-2.883 1.05-4.65 0-1.767-.35-3.3-1.05-4.6-.7-1.333-1.65-2.35-2.85-3.05-1.167-.733-2.483-1.1-3.95-1.1s-2.8.367-4 1.1c-1.167.7-2.1 1.717-2.8 3.05-.7 1.3-1.05 2.833-1.05 4.6 0 1.767.35 3.317 1.05 4.65.7 1.3 1.633 2.317 2.8 3.05 1.2.7 2.533 1.05 4 1.05z" fill="#AB103A"/></svg>