<svg width="26" height="15" fill="none" xmlns="http://www.w3.org/2000/svg"><path opacity=".7" d="M25.862 13.546a1.909 1.909 0 00-.088-.17c-.452-.822-1.313-1.83-2.586-3.026l-.027-.027-.013-.014-.014-.013h-.013c-.578-.558-.943-.931-1.096-1.123-.28-.365-.344-.735-.19-1.109.109-.283.515-.88 1.219-1.793.37-.483.663-.872.88-1.164 1.56-2.1 2.237-3.44 2.03-4.025l-.082-.137c-.054-.082-.194-.157-.42-.225-.225-.069-.513-.08-.865-.035l-3.899.029a1.09 1.09 0 00-.447.047l-.068.034-.054.041a.6.6 0 00-.148.144.91.91 0 00-.136.24 22.461 22.461 0 01-1.448 3.08 29.948 29.948 0 01-.92 1.472c-.28.415-.515.721-.704.917-.19.196-.361.354-.515.472-.153.12-.27.169-.351.15a6.044 6.044 0 01-.23-.055.9.9 0 01-.305-.335 1.514 1.514 0 01-.156-.533 5.571 5.571 0 01-.047-.555 10.33 10.33 0 01.007-.657c.008-.283.013-.474.013-.575 0-.346.007-.723.02-1.13l.034-.964c.01-.237.013-.488.013-.753 0-.264-.015-.472-.047-.623a2.168 2.168 0 00-.142-.438.726.726 0 00-.278-.328 1.544 1.544 0 00-.453-.185c-.479-.11-1.087-.17-1.828-.178C10.83-.016 9.752.094 9.274.33c-.19.1-.361.237-.514.41-.163.201-.185.311-.068.329.542.082.925.278 1.15.589l.082.163c.063.12.126.33.19.63.063.302.103.635.122 1 .045.666.045 1.236 0 1.711a20.92 20.92 0 01-.129 1.108c-.04.265-.102.479-.183.643a2.64 2.64 0 01-.163.302.24.24 0 01-.067.069 1.008 1.008 0 01-.366.068c-.126 0-.28-.064-.46-.192a3.244 3.244 0 01-.562-.527 7.035 7.035 0 01-.657-.938 16.318 16.318 0 01-.758-1.423l-.216-.398c-.135-.255-.32-.627-.555-1.115-.235-.488-.443-.96-.623-1.417a.905.905 0 00-.325-.438L5.104.863a.928.928 0 00-.217-.115 1.434 1.434 0 00-.312-.09L.866.685C.488.685.23.773.095.946l-.054.082a.449.449 0 00-.041.22c0 .1.027.223.082.368A45.212 45.212 0 001.848 5.34c.637 1.196 1.189 2.158 1.659 2.888.469.731.947 1.42 1.434 2.068.488.648.81 1.063.968 1.245.158.183.282.32.372.41l.339.33c.216.218.534.481.954.787.42.306.884.607 1.394.903a7.52 7.52 0 001.78.726 6.075 6.075 0 001.976.225h1.557c.316-.027.555-.127.717-.301l.054-.069a.93.93 0 00.102-.252 1.44 1.44 0 00.048-.377c-.01-.393.02-.747.088-1.06.067-.316.144-.553.23-.713a1.739 1.739 0 01.521-.602 1 1 0 01.109-.048c.216-.073.47-.002.765.212.293.215.568.479.825.794.257.315.566.668.927 1.061.36.393.677.684.948.876l.27.165c.181.109.416.209.704.3.29.092.542.115.759.07l3.465-.056c.343 0 .61-.057.799-.171.189-.114.302-.24.338-.377a1.06 1.06 0 00.007-.465 1.735 1.735 0 00-.095-.363z" fill="#fff"/></svg>