<svg width="151" height="37" viewBox="0 0 151 37" fill="none" xmlns="http://www.w3.org/2000/svg">
<path d="M37.25 0.999998V36H25.65V10.15H17.65L17.55 14.2C17.4167 19.2 17.0167 23.3 16.35 26.5C15.6833 29.7 14.5167 32.2 12.85 34C11.1833 35.7667 8.8 36.65 5.7 36.65C4.13333 36.65 2.46667 36.4333 0.7 36L1.3 26.55C1.73333 26.65 2.16667 26.7 2.6 26.7C3.83333 26.7 4.76667 26.2 5.4 25.2C6.06667 24.2 6.51667 22.8667 6.75 21.2C6.98333 19.5333 7.15 17.35 7.25 14.65L7.7 0.999998H37.25ZM61.232 36.8C57.4654 36.8 54.082 36.0167 51.082 34.45C48.082 32.8833 45.732 30.7167 44.032 27.95C42.332 25.15 41.482 22 41.482 18.5C41.482 15 42.332 11.8667 44.032 9.1C45.732 6.3 48.082 4.11666 51.082 2.55C54.082 0.983332 57.4654 0.199999 61.232 0.199999C64.9987 0.199999 68.382 0.983332 71.382 2.55C74.382 4.11666 76.732 6.3 78.432 9.1C80.132 11.8667 80.982 15 80.982 18.5C80.982 22 80.132 25.15 78.432 27.95C76.732 30.7167 74.382 32.8833 71.382 34.45C68.382 36.0167 64.9987 36.8 61.232 36.8ZM61.232 27.25C62.6987 27.25 64.0154 26.9 65.182 26.2C66.382 25.4667 67.332 24.45 68.032 23.15C68.732 21.8167 69.082 20.2667 69.082 18.5C69.082 16.7333 68.732 15.2 68.032 13.9C67.332 12.5667 66.382 11.55 65.182 10.85C64.0154 10.1167 62.6987 9.75 61.232 9.75C59.7654 9.75 58.432 10.1167 57.232 10.85C56.0654 11.55 55.132 12.5667 54.432 13.9C53.732 15.2 53.382 16.7333 53.382 18.5C53.382 20.2667 53.732 21.8167 54.432 23.15C55.132 24.45 56.0654 25.4667 57.232 26.2C58.432 26.9 59.7654 27.25 61.232 27.25ZM111.879 10.15H96.8289V36H85.2289V0.999998H111.879V10.15ZM131.105 36.8C127.338 36.8 123.955 36.0167 120.955 34.45C117.955 32.8833 115.605 30.7167 113.905 27.95C112.205 25.15 111.355 22 111.355 18.5C111.355 15 112.205 11.8667 113.905 9.1C115.605 6.3 117.955 4.11666 120.955 2.55C123.955 0.983332 127.338 0.199999 131.105 0.199999C134.872 0.199999 138.255 0.983332 141.255 2.55C144.255 4.11666 146.605 6.3 148.305 9.1C150.005 11.8667 150.855 15 150.855 18.5C150.855 22 150.005 25.15 148.305 27.95C146.605 30.7167 144.255 32.8833 141.255 34.45C138.255 36.0167 134.872 36.8 131.105 36.8ZM131.105 27.25C132.572 27.25 133.888 26.9 135.055 26.2C136.255 25.4667 137.205 24.45 137.905 23.15C138.605 21.8167 138.955 20.2667 138.955 18.5C138.955 16.7333 138.605 15.2 137.905 13.9C137.205 12.5667 136.255 11.55 135.055 10.85C133.888 10.1167 132.572 9.75 131.105 9.75C129.638 9.75 128.305 10.1167 127.105 10.85C125.938 11.55 125.005 12.5667 124.305 13.9C123.605 15.2 123.255 16.7333 123.255 18.5C123.255 20.2667 123.605 21.8167 124.305 23.15C125.005 24.45 125.938 25.4667 127.105 26.2C128.305 26.9 129.638 27.25 131.105 27.25Z" fill="#AB103A"/>
</svg>
